<svg width="75" height="50" viewBox="0 0 75 50" fill="none" xmlns="http://www.w3.org/2000/svg">
<path d="M50.054 24.9989C50.054 25.5947 50.0341 26.1746 49.9924 26.7526C49.9745 27.0307 49.9507 27.3067 49.9229 27.5808C49.9229 27.6106 49.9229 27.6384 49.9229 27.6662C49.4891 31.6655 48.0996 35.5018 45.8718 38.8513C43.644 42.2008 40.6431 44.9653 37.1225 46.9115L37.0867 46.9333C33.1574 44.7749 29.8801 41.6006 27.5974 37.7422C25.3147 33.8838 24.1104 29.483 24.1104 24.9999C24.1104 20.5168 25.3147 16.116 27.5974 12.2576C29.8801 8.39918 33.1574 5.22484 37.0867 3.06641L37.1225 3.08627C40.6503 5.0367 43.6559 7.80873 45.8848 11.1675C48.1138 14.5263 49.5003 18.3728 49.9269 22.3812C49.9547 22.6672 49.9805 22.9552 50.0003 23.2452C50.0321 23.833 50.054 24.409 50.054 24.9989Z" fill="white"/>
<path d="M49.0602 0.0478525C45.9254 0.046977 42.8185 0.637229 39.9023 1.78767C41.571 2.8593 43.1192 4.10784 44.52 5.51161C45.2127 6.20482 45.8684 6.93407 46.4843 7.69631C48.9805 7.3124 51.5302 7.47279 53.9586 8.16648C56.387 8.86018 58.6368 10.0708 60.5535 11.7153C62.4703 13.3598 64.0088 15.3993 65.0636 17.6941C66.1184 19.9889 66.6645 22.4846 66.6645 25.0101C66.6645 27.5357 66.1184 30.0314 65.0636 32.3261C64.0088 34.6209 62.4703 36.6604 60.5535 38.3049C58.6368 39.9495 56.387 41.1601 53.9586 41.8537C51.5302 42.5474 48.9805 42.7078 46.4843 42.3239C45.8679 43.0857 45.2122 43.815 44.52 44.5086C43.1185 45.9069 41.5703 47.1501 39.9023 48.2167C43.3183 49.5646 46.9897 50.142 50.6545 49.9076C54.3194 49.6733 57.8873 48.633 61.1038 46.861C64.3203 45.089 67.1061 42.6289 69.2624 39.6563C71.4187 36.6837 72.8923 33.2719 73.5782 29.6642C74.2641 26.0565 74.1454 22.3419 73.2304 18.7854C72.3154 15.2289 70.6268 11.9182 68.285 9.08941C65.9432 6.26065 63.0059 3.98359 59.6828 2.4207C56.3597 0.857798 52.7326 0.0475813 49.0602 0.0478525Z" fill="white"/>
<path d="M23.5296 14.7944C23.1632 15.7073 22.8469 16.6395 22.5822 17.5869C21.9693 17.3134 21.3725 17.005 20.7948 16.6634C16.3181 13.9901 10.9755 12.9315 5.3449 13.5988C4.31412 13.7219 3.35881 13.8927 2.51074 14.0794C3.14781 12.7732 3.89672 11.5246 4.74907 10.3476C5.06288 10.2999 5.3886 10.2562 5.72226 10.2185C10.8365 9.62661 15.474 10.5462 19.4998 12.9494C20.7749 13.7035 22.1256 14.3219 23.5296 14.7944Z" fill="white"/>
<path d="M26.2404 9.6625C25.6341 10.5645 25.0817 11.5016 24.586 12.4689C23.264 12.046 21.9936 11.4764 20.7985 10.7707C16.7886 8.38147 12.0974 7.28315 7.1123 7.5473C8.30324 6.33191 9.61337 5.23936 11.0229 4.28613C14.0184 4.57931 16.9125 5.52864 19.4996 7.06667C21.5933 8.28676 23.8691 9.16317 26.2404 9.6625Z" fill="white"/>
<path d="M23.1385 50.0001C18.6105 49.6641 14.2607 48.0953 10.5605 45.4639H10.5963C13.742 45.709 16.7888 46.6761 19.5 48.2901C20.6188 48.9543 21.7978 49.5116 23.0213 49.9544C23.0591 49.9723 23.0988 49.9862 23.1385 50.0001Z" fill="white"/>
<path d="M34.3598 48.2325C33.5658 48.5523 32.7557 48.8307 31.9328 49.0667C28.1116 48.8879 24.1235 48.0975 20.7988 46.1153C16.8921 43.7857 12.33 42.6814 7.49191 42.882H7.47404C6.50148 41.9265 5.60812 40.8937 4.80273 39.7936H4.81465C5.10859 39.7479 5.41048 39.7082 5.72428 39.6705C10.8325 39.0746 15.4661 40.0002 19.4959 42.4033C22.624 44.2703 26.4472 45.3626 30.9378 45.6744C32.0096 46.6156 33.1538 47.471 34.3598 48.2325Z" fill="white"/>
<path d="M30.8245 4.43075C30.4134 4.79421 30.0122 5.17355 29.6329 5.56283C29.037 6.15866 28.4809 6.7664 27.9486 7.40394C25.4402 6.96303 22.9834 6.17653 20.8086 4.8816C18.8502 3.71656 16.7279 2.85224 14.5127 2.31755C15.8987 1.67246 17.3415 1.15718 18.8225 0.77832C19.0509 0.901458 19.2813 1.03254 19.5097 1.17554C22.6001 3.01864 26.3975 4.10702 30.8245 4.43075Z" fill="white"/>
<path d="M22.0043 20.105C21.8309 21.0696 21.7102 22.0429 21.6428 23.0206C21.3568 22.8736 21.0755 22.718 20.7987 22.5539C16.3181 19.8806 10.9755 18.822 5.34493 19.4913C3.66714 19.6891 2.00977 20.0327 0.391602 20.5181C0.609637 19.3264 0.914318 18.1521 1.30322 17.0047C2.75028 16.5813 4.23057 16.2809 5.72825 16.107C10.8365 15.5112 15.4701 16.4367 19.4998 18.8399C20.3046 19.3186 21.1414 19.7413 22.0043 20.105Z" fill="white"/>
<path d="M34.7582 1.97421C34.5139 1.97421 34.2677 1.98414 34.0194 1.98414C30.3829 2.00996 26.4444 1.55316 22.9688 0.0834469C23.6467 0.0278362 24.3299 3.08266e-05 25.0184 3.08266e-05C28.2045 -0.00498372 31.362 0.601831 34.3193 1.78752C34.4663 1.85107 34.6113 1.91066 34.7582 1.97421Z" fill="white"/>
<path d="M21.863 29.0251C21.5015 28.8463 21.1466 28.6523 20.7984 28.4431C16.3178 25.7718 10.9752 24.7113 5.34459 25.3806C3.54104 25.5963 1.76124 25.9779 0.0278054 26.5206C0.0278054 26.4431 0.0278054 26.3657 0.0278054 26.2882C0.0278054 26.2108 0.0178749 26.1174 0.0139027 26.032C0.0139027 25.8811 0.0139027 25.7281 0 25.5732C0 25.4898 0 25.4064 0 25.323C0 25.2396 0 25.1085 0 24.9992C0 24.89 0 24.7331 0 24.602C0.00794439 24.1651 0.0264813 23.7321 0.0556107 23.3031C1.89692 22.6596 3.80401 22.2227 5.74181 22.0002C10.85 21.4044 15.4836 22.3279 19.5134 24.7331C20.1815 25.1353 20.8725 25.498 21.5829 25.8195C21.6145 26.8925 21.708 27.9628 21.863 29.0251Z" fill="white"/>
<path d="M23.7474 35.7376C22.7237 35.36 21.7365 34.89 20.798 34.3334C16.3174 31.6621 10.9748 30.6016 5.34419 31.2709C3.8805 31.446 2.43192 31.7302 1.01053 32.1209C0.716241 31.1282 0.484734 30.1179 0.317383 29.0961C3.34618 28.0713 11.7076 25.972 19.5011 30.6214C20.4576 31.1893 21.4586 31.6789 22.4941 32.0852C22.823 33.3173 23.2371 34.5251 23.7335 35.6999C23.7389 35.7121 23.7436 35.7247 23.7474 35.7376Z" fill="white"/>
<path d="M28.085 42.7706C25.5229 42.3376 23.0125 41.5451 20.798 40.2244C16.3174 37.5531 10.9747 36.4925 5.34416 37.1618C4.6252 37.2472 3.94198 37.3604 3.30841 37.4776C2.75616 36.5263 2.26847 35.539 1.84863 34.5223C3.11911 34.1811 4.41287 33.9335 5.71954 33.7815C10.8278 33.1857 15.4613 34.1092 19.4911 36.5144C21.3133 37.5815 23.278 38.384 25.3263 38.8977C26.132 40.2661 27.055 41.5619 28.085 42.7706Z" fill="white"/>
</svg>
