<svg width="25" height="25" viewBox="0 0 25 25" fill="none" xmlns="http://www.w3.org/2000/svg">
<path d="M5.98594 8.03101C6.72582 8.79728 7.58982 9.43608 8.54329 9.91945C9.74023 10.5263 11.0514 10.8746 12.3917 10.9417L13.0558 10.975L12.9034 10.3278C12.7673 9.74966 12.826 9.14278 13.0704 8.60147C13.3147 8.06017 13.7311 7.61476 14.2547 7.33451C14.7784 7.05425 15.3799 6.95484 15.9659 7.05173C16.5518 7.14862 17.0894 7.43639 17.4949 7.8703L17.6846 8.07322L17.957 8.01942C18.1505 7.98122 18.3421 7.93488 18.5312 7.88052C18.4352 7.95752 18.3336 8.02826 18.2269 8.09207L18.5425 9.01768C18.6273 9.00761 18.7118 8.99597 18.796 8.98278C18.6786 9.08233 18.5572 9.17744 18.432 9.26788L18.2133 9.42597L18.2254 9.69557C18.2313 9.8258 18.2349 9.95716 18.2349 10.0856C18.2349 14.0926 15.1876 18.6759 9.64457 18.6759H9.64411C8.65401 18.6768 7.67641 18.5056 6.75354 18.1745C6.9638 18.1363 7.17253 18.0882 7.37905 18.0305C8.25381 17.7857 9.07175 17.371 9.78611 16.81L10.8901 15.9429L9.48656 15.9168C8.92407 15.9064 8.37893 15.7203 7.92746 15.3846C7.68799 15.2065 7.48124 14.9911 7.3142 14.7481C7.56798 14.7332 7.82036 14.6921 8.0673 14.6252L8.03568 13.6526C7.42573 13.5291 6.87724 13.1986 6.48319 12.7169C6.24844 12.43 6.07711 12.0999 5.97692 11.7484C6.24642 11.8198 6.52411 11.8606 6.80474 11.8695L8.55003 11.9244L7.09834 10.954C6.37458 10.4702 5.89964 9.64481 5.89964 8.71062L5.89964 8.70991C5.89932 8.47985 5.92857 8.25174 5.98594 8.03101Z" stroke="white"/>
</svg>
