<svg width="16" height="16" viewBox="0 0 16 16" fill="none" xmlns="http://www.w3.org/2000/svg">
<path d="M15.0556 7.91086C15.0556 11.2689 12.7353 14.0878 9.61068 14.848V10.6185H10.8905H11.3197L11.3848 10.1943L11.7232 7.98662L11.8114 7.41086H11.2289H9.61068V6.47781C9.61068 6.24824 9.66769 6.0831 9.75542 5.98163C9.83142 5.89373 9.98959 5.78461 10.3558 5.78461H11.3183H11.8183V5.28461V3.40545V2.98346L11.4023 2.91255L11.3183 3.40545L11.4022 2.91254L11.4021 2.91252L11.4019 2.91248L11.4011 2.91234L11.3986 2.91192L11.3898 2.91046L11.3579 2.90529C11.3305 2.90092 11.2911 2.89479 11.2414 2.88749C11.1422 2.8729 11.0016 2.85357 10.8342 2.83426C10.5014 2.79589 10.0532 2.75649 9.60873 2.75649C8.63504 2.75649 7.77502 3.05324 7.15785 3.671C6.54018 4.28926 6.22353 5.17115 6.22353 6.22801V7.41086H4.78325H4.28325V7.91086V10.1185V10.6185H4.78325H6.22353V14.848C3.09811 14.0873 0.777832 11.2695 0.777832 7.91086C0.777832 3.96805 3.97391 0.771973 7.91672 0.771973C11.8595 0.771973 15.0556 3.96805 15.0556 7.91086Z" stroke="white"/>
</svg>
