<svg width="16" height="16" viewBox="0 0 16 16" fill="none" xmlns="http://www.w3.org/2000/svg">
<path d="M12.4628 1.09351L12.4612 1.0929C12.031 0.925658 11.5314 0.807134 10.7642 0.771114L12.4628 1.09351ZM12.4628 1.09351C12.9047 1.26358 13.2695 1.48897 13.6427 1.86151L13.6427 1.86152M12.4628 1.09351L13.6427 1.86152M13.6427 1.86152L13.6454 1.86419M13.6427 1.86152L13.6454 1.86419M13.6454 1.86419C13.9821 2.19513 14.2426 2.59544 14.4088 3.03728L14.4087 3.03729M13.6454 1.86419L14.4087 3.03729M14.4087 3.03729L14.4106 3.04201M14.4087 3.03729L14.4106 3.04201M14.4106 3.04201C14.5772 3.47187 14.6964 3.97226 14.7325 4.73872M14.4106 3.04201L14.7325 4.73872M14.4104 12.6877L14.4105 12.6877C14.5773 12.2567 14.6965 11.7567 14.7325 10.99L14.4104 12.6877ZM14.4104 12.6877L14.4086 12.6927M14.4104 12.6877L14.4086 12.6927M14.4086 12.6927C14.243 13.1344 13.9826 13.5345 13.6459 13.8649L13.6458 13.8648M14.4086 12.6927L13.6458 13.8648M13.6458 13.8648L13.6395 13.8712M13.6458 13.8648L13.6395 13.8712M13.6395 13.8712C13.3084 14.2078 12.908 14.4683 12.4662 14.6346L12.4662 14.6346M13.6395 13.8712L12.4662 14.6346M12.4662 14.6346L12.4616 14.6364M12.4662 14.6346L12.4616 14.6364M12.4616 14.6364C12.0317 14.8031 11.5313 14.9222 10.7649 14.9583M12.4616 14.6364L10.7649 14.9583M2.81594 14.6363L2.81593 14.6363C3.24695 14.8032 3.74687 14.9223 4.51357 14.9583L2.81594 14.6363ZM2.81594 14.6363L2.81107 14.6344M2.81594 14.6363L2.81107 14.6344M2.81107 14.6344C2.36931 14.4687 1.96915 14.2083 1.63864 13.8716L1.6387 13.8715M2.81107 14.6344L1.6387 13.8715M1.6387 13.8715L1.63227 13.8652M1.6387 13.8715L1.63227 13.8652M1.63227 13.8652C1.29561 13.5343 1.03516 13.1341 0.869061 12.6922L0.869093 12.6922M1.63227 13.8652L0.869093 12.6922M0.869093 12.6922L0.866975 12.6868M0.869093 12.6922L0.866975 12.6868M0.866975 12.6868C0.699918 12.2577 0.58138 11.7577 0.545316 10.9907C0.509908 10.1876 0.5 9.9365 0.5 7.86472C0.5 5.79103 0.507658 5.54159 0.545284 4.7394C0.581301 3.97151 0.69981 3.47269 0.867072 3.0424L0.867106 3.04241M0.866975 12.6868L0.867106 3.04241M0.867106 3.04241L0.869252 3.03669M0.867106 3.04241L0.869252 3.03669M0.869252 3.03669C1.03477 2.59497 1.29508 2.1949 1.63188 1.86463L1.63194 1.8647M0.869252 3.03669L1.63194 1.8647M1.63194 1.8647L1.63853 1.85799M1.63194 1.8647L1.63853 1.85799M1.63853 1.85799C1.96921 1.52129 2.36943 1.26088 2.81122 1.09495L2.81123 1.09498M1.63853 1.85799L2.81123 1.09498M2.81123 1.09498L2.81657 1.0929M2.81123 1.09498L2.81657 1.0929M2.81657 1.0929C3.24674 0.925689 3.74539 0.807201 4.51289 0.771146C5.31599 0.735738 5.56711 0.72583 7.63889 0.72583C9.71256 0.72583 9.96201 0.733488 10.7642 0.771113L2.81657 1.0929ZM14.7325 4.73872C14.7679 5.54182 14.7778 5.79293 14.7778 7.86472C14.7778 9.93839 14.7701 10.1878 14.7325 10.99L14.7325 4.73872ZM10.7649 14.9583C9.96179 14.9937 9.71068 15.0036 7.63889 15.0036C5.56522 15.0036 5.31577 14.9959 4.51359 14.9583L10.7649 14.9583ZM7.63889 3.54527C6.4933 3.54527 5.39463 4.00036 4.58458 4.81041C3.77453 5.62046 3.31944 6.71913 3.31944 7.86472C3.31944 9.01031 3.77453 10.109 4.58458 10.919C5.39463 11.7291 6.4933 12.1842 7.63889 12.1842C8.78448 12.1842 9.88314 11.7291 10.6932 10.919C11.5033 10.109 11.9583 9.01031 11.9583 7.86472C11.9583 6.8762 11.6195 5.92263 11.0061 5.15927C11.2044 5.25697 11.4241 5.30916 11.6493 5.30916C12.0352 5.30916 12.4052 5.15588 12.6781 4.88304C12.9509 4.6102 13.1042 4.24015 13.1042 3.8543C13.1042 3.46845 12.9509 3.0984 12.6781 2.82556C12.4052 2.55272 12.0352 2.39944 11.6493 2.39944C11.2635 2.39944 10.8934 2.55272 10.6206 2.82556C10.3477 3.0984 10.1944 3.46845 10.1944 3.8543C10.1944 4.07947 10.2466 4.29926 10.3443 4.49748C9.58098 3.88412 8.6274 3.54527 7.63889 3.54527ZM7.63889 6.07305C8.11407 6.07305 8.56979 6.26182 8.90579 6.59782C9.24179 6.93382 9.43056 7.38954 9.43056 7.86472C9.43056 8.3399 9.24179 8.79562 8.90579 9.13162C8.56979 9.46762 8.11407 9.65639 7.63889 9.65639C7.16371 9.65639 6.70799 9.46762 6.37199 9.13162C6.03599 8.79562 5.84722 8.3399 5.84722 7.86472C5.84722 7.38954 6.03599 6.93382 6.37199 6.59782C6.70799 6.26182 7.16371 6.07305 7.63889 6.07305Z" stroke="white"/>
</svg>
